<svg xmlns="http://www.w3.org/2000/svg" viewBox="0 0 191.173 115.008">
  <path d="M 127.187 69.409 C 125.433 68.707 123.788 67.918 122.244 67.042 L 137.027 67.042 L 137.027 62.049 L 116.836 62.049 L 116.836 59.736 L 110.526 59.736 L 110.526 62.049 L 91.450 62.049 L 91.450 67.042 L 106.059 67.042 C 104.627 67.989 102.943 68.901 101.018 69.773 C 97.166 71.563 93.466 72.894 89.926 73.767 L 92.919 78.814 C 96.532 77.801 100.843 75.963 105.851 73.297 C 107.465 72.317 109.022 71.232 110.526 70.039 L 110.526 79.915 L 116.836 79.915 L 116.836 69.092 C 118.657 70.703 120.634 72.156 122.774 73.454 C 126.593 75.800 130.710 77.659 135.122 79.027 L 138.547 72.770 C 134.159 71.860 130.375 70.742 127.187 69.409 M 117.810 53.588 L 110.611 53.588 L 110.611 49.805 L 117.810 49.805 Z M 110.621 40.556 L 117.796 40.556 L 117.796 44.760 L 110.621 44.760 Z M 121.878 35.355 L 116.363 35.355 C 116.714 34.479 117.010 33.566 117.258 32.621 L 111.634 31.309 C 111.355 32.637 110.966 33.988 110.475 35.355 L 106.586 35.355 L 106.586 58.845 L 121.878 58.845 Z M 105.059 47.412 L 91.225 51.637 L 91.225 59.003 L 105.059 54.780 Z M 105.059 38.189 L 91.225 33.748 L 91.225 41.147 L 105.059 45.589 Z M 137.027 33.748 L 123.188 38.189 L 123.188 45.589 L 137.027 41.147 Z M 137.027 51.637 L 123.188 47.412 L 123.188 54.780 L 137.027 59.003 Z M 45.362 31.101 C 43.400 38.701 40.179 45.932 35.696 52.801 L 38.849 58.845 C 39.724 57.724 40.580 56.515 41.422 55.221 L 41.422 79.707 L 47.466 79.707 L 47.466 43.395 C 48.937 39.927 50.216 36.406 51.300 32.831 Z M 58.344 50.490 C 61.460 49.684 63.985 48.318 65.913 46.389 C 66.578 45.690 67.173 44.816 67.698 43.760 C 68.715 44.816 69.815 45.827 71.007 46.808 C 72.722 48.211 74.532 49.436 76.425 50.490 Z M 82.989 46.071 C 80.043 45.235 77.488 44.201 75.316 42.975 C 74.476 42.519 73.676 42.008 72.901 41.447 L 82.412 41.447 L 82.412 35.719 L 69.752 35.719 C 69.891 34.392 69.957 32.919 69.957 31.309 L 63.915 31.309 C 63.915 32.919 63.811 34.392 63.602 35.719 L 52.091 35.719 L 52.091 41.447 L 61.762 41.447 C 61.516 41.801 61.252 42.113 60.974 42.395 C 59.048 44.283 55.877 45.514 51.461 46.071 L 53.401 50.490 L 49.361 50.490 L 49.361 56.110 L 74.790 56.110 L 74.790 71.247 C 74.790 73.071 74.320 73.977 73.375 73.977 C 71.379 73.977 69.398 73.715 67.435 73.190 L 68.538 79.498 C 70.046 79.776 71.659 79.915 73.375 79.915 C 76.212 79.915 78.188 79.357 79.310 78.237 C 80.362 77.394 80.887 75.412 80.887 72.294 L 80.887 56.110 L 84.517 56.110 L 84.517 50.490 L 80.731 50.490 Z M 63.102 70.771 C 63.102 70.771 68.690 67.185 59.939 59.634 C 62.031 59.745 72.947 68.874 63.102 70.771 M 53.253 68.301 C 53.253 68.301 53.661 74.915 64.525 70.965 C 63.405 72.716 50.110 77.807 53.253 68.301 M 60.189 60.846 C 60.189 60.846 54.227 57.898 52.253 69.275 C 51.285 67.440 53.497 53.375 60.189 60.846 M 59.077 56.726 C 53.590 56.726 49.142 61.174 49.142 66.654 C 49.142 72.148 53.590 76.594 59.077 76.594 C 64.559 76.594 69.009 72.148 69.009 66.654 C 69.009 61.174 64.559 56.726 59.077 56.726" fill="rgb(204,0,41)" fill-rule="evenodd"></path>
</svg>
